<?xml version="1.0"?>

<!-- Created with Inkscape (http://www.inkscape.org/) -->

<svg xmlns:dc="http://purl.org/dc/elements/1.1/" xmlns:cc="http://creativecommons.org/ns#" xmlns:rdf="http://www.w3.org/1999/02/22-rdf-syntax-ns#" xmlns:svg="http://www.w3.org/2000/svg" xmlns="http://www.w3.org/2000/svg" xmlns:sodipodi="http://sodipodi.sourceforge.net/DTD/sodipodi-0.dtd" xmlns:inkscape="http://www.inkscape.org/namespaces/inkscape" width="68.755898" height="36.59341" viewBox="0 0 243.62326 129.66169" id="svg2" version="1.1" inkscape:version="0.91 r13725" sodipodi:docname="export.svg">
  <defs id="defs4"></defs>
  <sodipodi:namedview id="base" pagecolor="#ffffff" bordercolor="#666666" borderopacity="1.0" inkscape:pageopacity="0.0" inkscape:pageshadow="2" inkscape:zoom="2.9355856" inkscape:cx="175.13362" inkscape:cy="88.380846" inkscape:document-units="px" inkscape:current-layer="layer1" showgrid="false" fit-margin-top="0" fit-margin-left="0" fit-margin-right="0" fit-margin-bottom="0" inkscape:window-width="1871" inkscape:window-height="1062" inkscape:window-x="49" inkscape:window-y="18" inkscape:window-maximized="1"></sodipodi:namedview>
  <metadata id="metadata7">
    <rdf:rdf>
      <cc:work rdf:about="">
        <dc:format>image/svg+xml</dc:format>
        <dc:type rdf:resource="http://purl.org/dc/dcmitype/StillImage"></dc:type>
        <dc:title></dc:title>
      </cc:work>
    </rdf:rdf>
  </metadata>
  <g inkscape:label="Layer 1" inkscape:groupmode="layer" id="layer1" transform="translate(-223.43781,-572.50993)">
    <g id="g3445" transform="matrix(1,0,0,0.67893435,0,225.44319)">
      <path inkscape:connector-curvature="0" d="m 254.54839,564.70693 c -1.08717,-2.22571 -2.70085,-4.14128 -4.26164,-6.0458 -1.74003,-2.05667 -3.45194,-4.13542 -5.15515,-6.22261 -1.06721,-1.21939 -1.87172,-2.59931 -2.58237,-4.04608 -0.59362,-1.43259 -1.27653,-2.8206 -1.99485,-4.19352 -0.31993,-0.66627 -0.15921,-0.35566 -0.47651,-0.93474 0,0 5.54389,-3.17254 5.54389,-3.17254 l 0,0 c 0.31096,0.61144 0.15837,0.29284 0.45492,0.95716 0.69063,1.3903 1.37318,2.78266 1.97737,4.21375 0.69227,1.40264 1.48748,2.73578 2.48395,3.94824 1.6373,2.13038 3.3121,4.22775 5.0733,6.25799 1.60404,1.94161 3.2195,3.89326 4.49192,6.07532 0,0 -5.55483,3.16283 -5.55483,3.16283 z" id="path3352" style="fill:#ff0000"></path>
      <path inkscape:connector-curvature="0" d="m 269.90193,558.50161 c -0.64696,-2.23483 -1.3625,-4.44733 -2.1035,-6.65235 -0.78412,-2.45367 -1.62203,-4.89056 -2.3642,-7.35735 -0.66966,-2.26742 -1.37979,-4.52141 -1.99246,-6.80508 -0.33829,-1.57439 -0.7409,-3.13566 -1.0577,-4.71469 -0.123,-0.77907 -0.3313,-1.53931 -0.44951,-2.31927 -0.0634,-0.45583 -0.0826,-0.91574 -0.0987,-1.3751 0,0 5.70593,-2.9276 5.70593,-2.9276 l 0,0 c 0.009,0.43854 0.0191,0.87761 0.0655,1.31419 0.0951,0.77905 0.30519,1.53342 0.40654,2.31067 0.25726,1.58294 0.62029,3.14814 0.94537,4.71771 0.59976,2.28175 1.2886,4.53647 1.96044,6.79795 0.74921,2.45856 1.54382,4.9034 2.34085,7.34679 0.74799,2.18762 1.43625,4.39572 2.22902,6.56714 0,0 -5.58751,3.09699 -5.58751,3.09699 z" id="path3354" style="fill:#ff0000"></path>
      <path inkscape:connector-curvature="0" d="m 286.69891,555.38094 c -0.19822,-3.29467 -0.73193,-6.56328 -1.22555,-9.82428 -0.71847,-4.78635 -1.58324,-9.54893 -2.32544,-14.3317 -0.25087,-2.255 -0.86139,-4.4424 -1.31434,-6.65943 -0.0314,-0.17783 -0.0628,-0.35567 -0.0942,-0.5335 0,0 5.63786,-2.98198 5.63786,-2.98198 l 0,0 c 0.023,0.17571 0.0461,0.35141 0.0691,0.52712 0.36237,2.26695 0.90901,4.50516 1.09842,6.79844 0.65975,4.79821 1.48982,9.56757 2.28493,14.34456 0.54189,3.24891 1.07504,6.49883 1.57219,9.75495 0,0 -5.70299,2.90582 -5.70299,2.90582 z" id="path3356" style="fill:#ff0000"></path>
      <path inkscape:connector-curvature="0" d="m 300.42563,551.1007 c 0.8905,-3.62102 1.44012,-7.3177 2.06559,-10.9914 0.6383,-3.87122 1.2869,-7.75529 2.44288,-11.51107 0.38289,-1.2446 0.97743,-2.39753 1.63734,-3.51327 0,0 5.83384,-2.57175 5.83384,-2.57175 l 0,0 c -0.71764,1.07951 -1.37402,2.20442 -1.8153,3.42895 -1.33727,3.72004 -2.06212,7.61836 -2.67472,11.51514 -0.58874,3.62503 -1.11375,7.25996 -1.74379,10.87804 0,0 -5.74584,2.76536 -5.74584,2.76536 z" id="path3358" style="fill:#ff0000"></path>
      <path inkscape:connector-curvature="0" d="m 314.30408,548.31911 c 2.45124,-2.46654 4.37127,-5.41157 6.32033,-8.27703 1.55239,-2.2568 3.00806,-4.57543 4.32378,-6.97752 1.05916,-1.73441 1.90091,-3.57838 2.76225,-5.41434 0.11404,-0.24652 0.22807,-0.49305 0.34211,-0.73957 0,0 5.75814,-2.62227 5.75814,-2.62227 l 0,0 c -0.1198,0.25144 -0.2396,0.50289 -0.35939,0.75433 -0.90287,1.82607 -1.66949,3.72039 -2.75645,5.45159 -1.36922,2.43614 -2.83942,4.80814 -4.44961,7.09476 -1.92808,2.8336 -3.83369,5.70156 -6.04846,8.322 0,0 -5.8927,2.40805 -5.8927,2.40805 z" id="path3360" style="fill:#ff0000"></path>
      <path inkscape:connector-curvature="0" d="m 330.04369,556.99979 c 1.00932,-2.55412 2.4726,-4.89455 3.91981,-7.21719 2.30909,-3.5736 4.68796,-7.10108 7.04302,-10.64436 2.37999,-3.71821 5.20126,-7.11475 8.08342,-10.44749 2.19956,-2.5535 4.4474,-5.06421 6.68071,-7.58797 0,0 5.76093,-2.42336 5.76093,-2.42336 l 0,0 c -2.29321,2.52906 -4.58814,5.05598 -6.82226,7.63784 -2.89676,3.31043 -5.75029,6.67542 -8.13453,10.38313 -2.33499,3.5273 -4.69601,7.03728 -6.98163,10.59695 -1.38637,2.24635 -2.80065,4.49838 -3.76708,6.96541 0,0 -5.78239,2.73704 -5.78239,2.73704 z" id="path3362" style="fill:#ff0000"></path>
      <path inkscape:connector-curvature="0" d="m 352.37379,554.8491 c 0.27641,-0.24802 0.54544,-0.50452 0.82923,-0.74406 0.89199,-0.75286 1.82101,-1.46105 2.71475,-2.21182 1.79022,-1.50384 3.53809,-3.05838 5.31772,-4.57481 3.13973,-2.58581 6.14109,-5.33069 8.89696,-8.32283 1.12417,-1.21888 2.2526,-2.43985 3.261,-3.75782 0,0 5.86055,-2.52179 5.86055,-2.52179 l 0,0 c -1.03517,1.37646 -2.20363,2.64404 -3.39916,3.88287 -2.80501,3.02525 -5.82471,5.83527 -9.01628,8.45128 -1.76062,1.49601 -3.48131,3.034 -5.22834,4.54538 -3.51806,3.04351 0.42752,-0.38844 -2.58742,2.1358 -0.25873,0.21663 -0.50245,0.45058 -0.75367,0.67587 0,0 -5.89534,2.44193 -5.89534,2.44193 z" id="path3364" style="fill:#ff0000"></path>
      <path inkscape:connector-curvature="0" d="m 248.49475,587.11683 c -0.63637,-2.6137 -2.64295,-4.40084 -4.6088,-6.07535 -2.78252,-2.23992 -5.69248,-4.31868 -8.71361,-6.22376 -1.23194,-0.72738 -2.27045,-1.71592 -3.32281,-2.67304 -0.3992,-0.40663 -0.77523,-0.83494 -1.15445,-1.25997 0,0 5.45568,-3.29992 5.45568,-3.29992 l 0,0 c 0.36406,0.40976 0.72408,0.82407 1.11762,1.20631 1.0127,0.93352 2.01659,1.88835 3.16801,2.65227 2.94667,2.02976 5.8338,4.14727 8.65539,6.3476 2.10328,1.7631 4.15949,3.62307 5.04624,6.30871 0,0 -5.64327,3.01715 -5.64327,3.01715 z" id="path3366" style="fill:#ff0000"></path>
      <path inkscape:connector-curvature="0" d="m 248.03276,600.34007 c -3.92081,0.55288 -7.90475,0.51876 -11.85673,0.60779 -3.5721,0.0623 -7.13466,0.28736 -10.69165,0.60838 0,0 5.01162,-3.69976 5.01162,-3.69976 l 0,0 c 3.49868,-0.21606 7.00025,-0.35164 10.50476,-0.43233 4.03667,-0.10948 8.13941,-0.111 12.10301,-0.96166 0,0 -5.07101,3.87758 -5.07101,3.87758 z" id="path3368" style="fill:#ff0000"></path>
      <path inkscape:connector-curvature="0" d="m 250.7311,612.99562 c -2.98793,0.78912 -5.99685,1.49485 -8.99637,2.23847 -2.22419,0.58975 -4.54715,0.87951 -6.71782,1.65943 -0.94614,0.44098 -1.95923,0.67829 -2.92687,1.0645 -0.15857,0.0567 -0.31715,0.11332 -0.47572,0.16999 0,0 5.03076,-3.92988 5.03076,-3.92988 l 0,0 c 0.15679,-0.0579 0.31359,-0.11573 0.47039,-0.1736 0.97445,-0.34099 1.95253,-0.66712 2.92184,-1.02239 2.1707,-0.61447 4.41196,-0.95582 6.59778,-1.51201 3.05976,-0.74504 6.12859,-1.46413 9.13921,-2.39378 0,0 -5.0432,3.89927 -5.0432,3.89927 z" id="path3370" style="fill:#ff0000"></path>
      <path inkscape:connector-curvature="0" d="m 257.95367,624.1929 c -2.376,0.63906 -4.76143,1.23117 -7.17081,1.73077 -3.72887,0.76881 -7.44336,1.58231 -11.1323,2.52523 -2.331,0.54759 -4.49936,1.54355 -6.66646,2.52927 -1.62397,0.6864 -3.23591,1.39796 -4.77311,2.26367 5.02849,-2.88415 6.45902,-3.74743 4.35386,-2.48372 0,0 -5.94216,2.28865 -5.94216,2.28865 l 0,0 c 2.51697,-1.47198 0.34544,-0.20302 6.5283,-3.7833 1.55335,-0.80934 3.16101,-1.49949 4.76561,-2.19993 2.14316,-0.96674 4.32047,-1.84869 6.62634,-2.35685 3.70404,-0.91741 7.43526,-1.70468 11.16227,-2.52176 2.45839,-0.55154 4.89931,-1.17314 7.31671,-1.88462 0,0 -5.06825,3.89259 -5.06825,3.89259 z" id="path3372" style="fill:#ff0000"></path>
      <path inkscape:connector-curvature="0" d="m 261.69281,632.92354 c -0.3387,0.28689 -0.67989,0.57087 -1.0161,0.86066 -1.8186,1.56754 -3.62415,3.12865 -5.53888,4.58118 -2.05483,1.55883 -2.62569,1.9143 -4.74661,3.37111 -3.76376,2.43583 -7.70521,4.5759 -11.57877,6.82734 -1.17637,0.68374 2.34378,-1.38539 3.55092,-2.01319 0.51786,-0.26932 -0.99228,0.61526 -1.47989,0.9361 -0.45208,0.29747 -0.89247,0.61235 -1.3387,0.91853 -2.7244,1.92005 -4.95557,4.41661 -7.30189,6.75918 -0.97353,0.94708 -1.98749,1.85074 -3.00047,2.75493 0,0 -5.80461,2.36086 -5.80461,2.36086 l 0,0 c 1.04482,-0.9054 2.09143,-1.80929 3.0994,-2.75604 2.3746,-2.32743 4.56277,-4.87453 7.25281,-6.85458 1.03272,-0.726 1.75836,-1.26468 2.85412,-1.91379 13.67132,-8.09863 6.51908,-3.73903 3.67749,-2.11795 -1.52765,0.8715 6.33574,-3.73038 4.51936,-2.72298 3.85184,-2.60851 7.62233,-5.34584 10.95382,-8.61074 0,0 5.898,-2.38062 5.898,-2.38062 z" id="path3384" style="fill:#ff0000"></path>
      <path inkscape:connector-curvature="0" d="m 262.2158,652.25776 c -1.96422,2.97306 -4.61494,5.3555 -7.29282,7.66414 -2.99709,2.48207 -6.1995,4.69976 -9.21757,7.15518 -2.02963,1.65125 -2.32677,1.96511 -4.25132,3.70572 -2.85395,2.60211 -5.28183,5.62123 -7.60721,8.69264 -0.17956,0.23552 -0.35911,0.47105 -0.53867,0.70657 0,0 -5.80366,2.48365 -5.80366,2.48365 l 0,0 c 0.19529,-0.23881 0.39058,-0.47763 0.58586,-0.71644 2.41897,-3.12382 4.94296,-6.1955 7.82691,-8.90365 1.94945,-1.78321 2.20624,-2.0656 4.26664,-3.75611 2.98545,-2.44948 6.16061,-4.65378 9.14801,-7.10088 2.57774,-2.20945 5.22398,-4.46626 7.02862,-7.38481 0,0 5.85521,-2.54601 5.85521,-2.54601 z" id="path3386" style="fill:#ff0000"></path>
      <path inkscape:connector-curvature="0" d="m 280.7076,667.17703 c -0.84371,2.12392 -1.7303,4.22934 -2.64364,6.32435 -1.11122,2.5179 -2.09828,5.08806 -3.06854,7.66281 -0.59538,1.78565 -1.4222,3.47776 -2.12216,5.22086 -0.34112,0.96514 -0.72505,1.90734 -1.18423,2.82197 -0.24615,0.4722 -0.12256,0.23495 -0.37078,0.71174 0,0 -5.84268,2.61723 -5.84268,2.61723 l 0,0 c 0.26449,-0.45933 0.13837,-0.2232 0.37739,-0.70891 0.50766,-0.88462 0.91546,-1.81189 1.26034,-2.77171 0.67261,-1.78005 1.62729,-3.4447 2.22028,-5.25959 0.98074,-2.58492 1.96598,-5.17004 3.08033,-7.70096 0.88615,-2.05447 1.7678,-4.1139 2.48929,-6.23334 0,0 5.8044,-2.68445 5.8044,-2.68445 z" id="path3388" style="fill:#ff0000"></path>
      <path inkscape:connector-curvature="0" d="m 262.63925,668.2663 c -0.91026,2.28013 -1.82683,4.55595 -2.65662,6.86699 -0.61016,1.83015 -1.32479,3.61979 -2.2189,5.32945 -0.54375,0.9617 -1.19327,1.85833 -1.81443,2.77062 -0.69659,1.01367 -1.28476,2.09793 -1.88886,3.16825 -0.0891,0.153 -0.17829,0.306 -0.26744,0.459 0,0 -5.83768,2.57306 -5.83768,2.57306 l 0,0 c 0.0977,-0.14451 0.19549,-0.28902 0.29324,-0.43353 0.5951,-1.08369 1.21668,-2.15677 1.84879,-3.21793 0.63344,-0.90336 1.25388,-1.81635 1.87652,-2.72675 0.965,-1.67553 1.73011,-3.45287 2.35559,-5.28223 0.81167,-2.27774 1.71257,-4.52047 2.53346,-6.79415 0,0 5.77633,-2.71278 5.77633,-2.71278 z" id="path3390" style="fill:#ff0000"></path>
      <path inkscape:connector-curvature="0" d="m 291.74474,667.76433 c 0.13271,2.79228 -0.18931,5.58183 -0.45881,8.35706 -0.3491,3.13225 -0.54773,6.2732 -0.51617,9.42432 0.18054,2.91463 0.55264,5.81122 0.94889,8.70274 0.22172,1.2157 0.36266,2.45485 0.73375,3.63719 0,0 -5.61473,3.04006 -5.61473,3.04006 l 0,0 c -0.25588,-1.25139 -0.41602,-2.52007 -0.62055,-3.78042 -0.38805,-2.91712 -0.77663,-5.83525 -0.98462,-8.77229 -0.022,-3.17838 0.16032,-6.3462 0.53031,-9.50458 0.26324,-2.70039 0.58587,-5.4396 0.31216,-8.15014 0,0 5.66977,-2.95394 5.66977,-2.95394 z" id="path3392" style="fill:#ff0000"></path>
      <path inkscape:connector-curvature="0" d="m 308.14733,669.65891 c 0.6045,2.10859 1.19275,4.22167 1.7753,6.33651 0.92411,3.2014 2.10415,6.32216 3.25546,9.44698 0.37746,0.99732 0.70641,2.01688 1.14938,2.98863 0.0621,0.13633 0.12074,0.27613 0.20496,0.40005 0.0328,0.0482 0.12974,0.16366 0.13902,0.10611 0.0223,-0.13857 -0.0599,-0.27426 -0.0898,-0.41138 -1.76419,1.0075 -3.52838,2.015 -5.29256,3.0225 0,0 5.83696,-2.65357 5.83696,-2.65357 l 0,0 c -1.86294,1.21429 -3.72589,2.42858 -5.58883,3.64288 -0.12298,-0.0938 -0.25933,-0.17236 -0.36894,-0.28152 -0.20605,-0.20519 -0.28507,-0.47886 -0.38049,-0.74346 -0.36597,-1.01481 -0.6625,-2.0535 -1.02655,-3.069 -1.11881,-3.15007 -2.30357,-6.27959 -3.30212,-9.47032 -0.61512,-2.08237 -1.17899,-4.18274 -1.92158,-6.22485 0,0 5.60979,-3.08956 5.60979,-3.08956 z" id="path3394" style="fill:#ff0000"></path>
      <path inkscape:connector-curvature="0" d="m 320.75295,668.34721 c 0.62733,2.74301 1.12523,5.51305 1.75799,8.25492 0.74686,3.04126 1.62205,6.04923 2.33088,9.09987 0.50763,2.46618 1.18235,4.89736 2.0041,7.27687 0.0427,0.11974 0.36606,1.10625 0.5171,1.28199 0.0571,0.0664 0.17042,0.0405 0.25563,0.0607 0,0 -5.39313,3.44921 -5.39313,3.44921 l 0,0 c -0.13634,-0.12912 -0.30473,-0.23121 -0.40901,-0.38738 -0.15168,-0.22715 -0.42884,-1.16861 -0.49168,-1.36535 -0.76835,-2.42299 -1.44268,-4.88129 -1.95468,-7.3716 -0.6857,-3.05853 -1.55763,-6.07066 -2.29142,-9.11777 -0.63788,-2.70528 -1.1193,-5.45359 -1.9389,-8.11221 0,0 5.61312,-3.06927 5.61312,-3.06927 z" id="path3396" style="fill:#ff0000"></path>
      <path inkscape:connector-curvature="0" d="m 347.66244,665.23049 c 0.75999,2.7324 1.10609,5.55873 1.59732,8.34752 0.65099,3.45154 1.2287,6.91515 2.07023,10.32634 0.43251,1.61423 1.00417,3.18696 1.42234,4.80492 0.28415,0.9793 0.58359,1.95626 0.89688,2.92746 0.22827,0.69853 0.11925,0.35191 0.32756,1.03969 0,0 -5.59961,3.05761 -5.59961,3.05761 l 0,0 c -0.19138,-0.67367 -0.0882,-0.33285 -0.31074,-1.0221 -0.33906,-0.98173 -0.63441,-1.98054 -0.92283,-2.97733 -0.3592,-1.6443 -0.91657,-3.23577 -1.29537,-4.87583 -0.77078,-3.44792 -1.32758,-6.93366 -1.99389,-10.40292 -0.51128,-2.72529 -0.89107,-5.50899 -1.80167,-8.1358 0,0 5.60978,-3.08956 5.60978,-3.08956 z" id="path3398" style="fill:#ff0000"></path>
      <path inkscape:connector-curvature="0" d="m 364.38178,675.47646 c 0.88707,2.97687 1.37578,6.05132 2.01687,9.08584 0.65027,3.42572 1.62205,6.76781 2.73107,10.06864 0.30552,0.88538 0.58978,1.77728 0.89896,2.66135 0,0 -5.55169,3.05629 -5.55169,3.05629 l 0,0 c -0.28275,-0.90125 -0.53094,-1.81174 -0.8134,-2.71321 -1.04583,-3.34977 -1.96999,-6.73591 -2.66215,-10.17829 -0.64285,-2.97202 -1.13514,-6.00476 -2.20316,-8.86265 0,0 5.5835,-3.11797 5.5835,-3.11797 z" id="path3400" style="fill:#ff0000"></path>
      <path inkscape:connector-curvature="0" d="m 384.45238,670.68086 c 0.95508,2.92678 2.26296,5.71928 3.48609,8.53928 1.31796,3.45824 2.64257,6.9152 3.91969,10.38895 0.79402,1.9202 1.62368,3.82364 2.4259,5.7402 0.0727,0.13195 0.14531,0.26389 0.21797,0.39584 0,0 -5.54523,3.16916 -5.54523,3.16916 l 0,0 c -0.0766,-0.15498 -0.15322,-0.30995 -0.22983,-0.46493 -0.73037,-1.96007 -1.49261,-3.90428 -2.27534,-5.845 -1.23505,-3.47769 -2.53409,-6.93368 -3.85939,-10.3777 -1.23385,-2.82574 -2.52146,-5.62778 -3.74965,-8.45625 0,0 5.60979,-3.08955 5.60979,-3.08955 z" id="path3402" style="fill:#ff0000"></path>
      <path inkscape:connector-curvature="0" d="m 395.03703,665.54479 c 1.55367,3.25032 3.15794,6.47756 4.75013,9.70952 1.90682,3.81038 4.08456,7.49406 6.63416,10.91183 1.72005,2.30573 2.24396,2.83709 4.10031,4.98754 1.78639,1.88134 3.59009,3.75297 5.52534,5.48359 0.31755,0.28397 1.78305,1.56219 2.32111,1.8446 0.19688,0.10334 0.43373,0.0982 0.6506,0.14727 -1.7351,0.88832 -3.4702,1.77664 -5.2053,2.66497 0,0 5.94572,-2.3329 5.94572,-2.3329 l 0,0 c -2.0023,1.07014 -4.0046,2.14028 -6.00689,3.21041 -0.22707,-0.11895 -0.47278,-0.20764 -0.68121,-0.35686 -0.47565,-0.34052 -1.9103,-1.70978 -2.20081,-1.99107 -1.8694,-1.81008 -3.65624,-3.7031 -5.41664,-5.61856 -1.80192,-2.12952 -2.41302,-2.78629 -4.09877,-5.05002 -2.56362,-3.44258 -4.78349,-7.13397 -6.78121,-10.92936 -1.65944,-3.20334 -3.29581,-6.42115 -5.11399,-9.5387 0,0 5.57745,-3.14226 5.57745,-3.14226 z" id="path3404" style="fill:#ff0000"></path>
      <path inkscape:connector-curvature="0" d="m 419.00987,669.81947 c 1.88841,3.34552 4.52516,6.17271 7.04475,9.04225 2.61207,3.04309 5.43116,5.88802 8.33873,8.64597 1.17793,0.99837 2.36284,2.00136 3.6555,2.85142 0.32069,0.21088 1.00643,0.69395 1.48588,0.67918 0.15629,-0.005 0.28311,-0.13284 0.42467,-0.19926 0,0 -5.11598,3.81768 -5.11598,3.81768 l 0,0 c -0.19255,-0.0235 -0.39236,-0.0132 -0.57765,-0.0706 -0.50671,-0.15702 -1.08838,-0.59302 -1.48871,-0.88614 -1.25881,-0.92168 -2.4402,-1.94425 -3.61304,-2.97106 -2.8987,-2.78586 -5.71567,-5.65165 -8.31671,-8.72133 -2.56585,-2.9048 -5.15806,-5.80171 -7.34393,-9.01217 0,0 5.50649,-3.17591 5.50649,-3.17591 z" id="path3406" style="fill:#ff0000"></path>
      <path inkscape:connector-curvature="0" d="m 437.95427,659.69878 c 1.25131,2.77738 2.82626,5.37925 4.53352,7.89523 1.8981,2.76866 3.93109,5.46322 6.18201,7.95754 1.34363,1.48893 1.86739,1.94473 3.28455,3.30413 1.1571,0.94758 2.14413,2.18989 3.45689,2.94872 0.22374,0.12933 0.48254,0.1852 0.72381,0.2778 0,0 -5.2808,3.48817 -5.2808,3.48817 l 0,0 c -0.24929,-0.14178 -0.51439,-0.25878 -0.74785,-0.42533 -1.23797,-0.88317 -2.21151,-2.09514 -3.33266,-3.10685 -3.50696,-3.49841 -6.71439,-7.28024 -9.536,-11.35692 -1.7613,-2.51695 -3.36591,-5.12294 -4.85223,-7.81172 0,0 5.56876,-3.17077 5.56876,-3.17077 z" id="path3408" style="fill:#ff0000"></path>
      <path inkscape:connector-curvature="0" d="m 437.96165,639.36782 c 1.09719,2.24553 2.24651,4.48611 3.77608,6.47471 0.4838,0.62899 1.01554,1.21961 1.52331,1.82942 3.18936,3.5122 7.23951,5.97928 11.60904,7.75095 0.82535,0.33465 1.6738,0.60923 2.5107,0.91384 2.54957,0.77187 5.05036,1.67326 7.50055,2.71495 0,0 -5.25272,3.48915 -5.25272,3.48915 l 0,0 c -2.3487,-1.10101 -4.76852,-2.02451 -7.22685,-2.85324 -0.8329,-0.32291 -1.67645,-0.6196 -2.49872,-0.96872 -4.41856,-1.87604 -8.54806,-4.37803 -11.8252,-7.92936 -0.52998,-0.61563 -1.08329,-1.21192 -1.58993,-1.84689 -1.59791,-2.00265 -2.80293,-4.26434 -4.10977,-6.45684 0,0 5.58351,-3.11797 5.58351,-3.11797 z" id="path3410" style="fill:#ff0000"></path>
      <path inkscape:connector-curvature="0" d="m 430.85087,621.5025 c 6.17591,1.50497 12.51216,2.28449 18.82245,2.98435 2.98729,0.24205 5.97379,0.62972 8.97512,0.67004 1.70856,0.023 3.39716,-0.13788 5.08847,-0.35079 1.11696,-0.17937 2.22021,-0.42987 3.32416,-0.67401 0,0 -5.02534,3.81217 -5.02534,3.81217 l 0,0 c -1.09161,0.21579 -2.18347,0.4348 -3.28874,0.57116 -1.35916,0.12686 -1.64961,0.1811 -3.05986,0.19386 -3.59441,0.0325 -7.15673,-0.54239 -10.72604,-0.87993 -6.45821,-0.75767 -12.9184,-1.56087 -19.31974,-2.71326 0,0 5.20952,-3.61359 5.20952,-3.61359 z" id="path3412" style="fill:#ff0000"></path>
      <path inkscape:connector-curvature="0" d="m 431.53324,610.50145 c 3.5182,0.74834 7.12008,0.65981 10.68668,0.44325 4.73675,-0.53247 9.49091,-0.82667 14.25262,-1.00291 2.67952,-0.0188 5.3516,-0.23819 8.00843,-0.57115 0,0 -4.97363,3.69819 -4.97363,3.69819 l 0,0 c -2.6281,0.25304 -5.26501,0.4056 -7.9057,0.44062 -4.76685,0.1909 -9.51935,0.54576 -14.2659,1.02614 -3.69408,0.19366 -7.40359,0.22707 -11.06633,-0.38288 0,0 5.26383,-3.65126 5.26383,-3.65126 z" id="path3414" style="fill:#ff0000"></path>
      <path inkscape:connector-curvature="0" d="m 428.30829,592.38664 c 2.82074,-1.85227 5.63591,-3.71312 8.44886,-5.57721 3.95317,-2.50671 7.91209,-5.063 12.16573,-7.03513 1.21489,-0.56326 1.95234,-0.8373 3.18265,-1.32614 1.57343,-0.58927 3.17345,-1.09024 4.66068,-1.87748 0,0 -4.92572,3.93274 -4.92572,3.93274 l 0,0 c -1.49978,0.67233 -3.06214,1.17658 -4.59499,1.76786 -1.27151,0.5173 -1.86002,0.73532 -3.11748,1.33802 -0.56445,0.27054 -2.19634,1.19545 -1.6746,0.84963 1.12554,-0.74604 2.31457,-1.39232 3.49167,-2.05403 1.19927,-0.67417 -4.7449,2.84175 -3.50354,2.18172 -2.73122,1.81555 -5.47176,3.61727 -8.17812,5.46994 0,0 -5.95514,2.33008 -5.95514,2.33008 z" id="path3416" style="fill:#ff0000"></path>
      <path inkscape:connector-curvature="0" d="m 421.38726,581.39729 c 0.14519,-0.3905 0.2815,-0.78443 0.43558,-1.17152 0.88566,-2.22495 1.86997,-4.40764 2.71178,-6.65093 0.73005,-1.94545 1.78286,-5.05658 2.44302,-6.977 2.03874,-6.52603 4.64709,-12.85288 7.48239,-19.06818 1.19224,-2.64174 2.59488,-5.17564 4.34906,-7.48377 1.17011,-1.51612 2.42473,-2.96573 3.68034,-4.41131 0.53974,-0.59288 1.07623,-1.18861 1.6089,-1.78785 0,0 5.84924,-2.46138 5.84924,-2.46138 l 0,0 c -0.54252,0.60396 -1.0769,1.21582 -1.64786,1.79348 -1.25178,1.4507 -2.52364,2.88608 -3.71317,4.38847 -1.82655,2.30674 -3.38669,4.79769 -4.64147,7.46483 -2.99594,6.18753 -5.72733,12.51871 -7.7268,19.10584 -0.17893,0.54642 -2.02344,6.19186 -2.27956,6.92775 -0.76142,2.18776 -1.67174,4.32107 -2.44725,6.50245 -0.1292,0.36339 -0.22691,0.73722 -0.34037,1.10584 0,0 -5.76383,2.72328 -5.76383,2.72328 z" id="path3418" style="fill:#ff0000"></path>
      <path inkscape:connector-curvature="0" d="m 404.65822,567.59358 c 0.77385,-1.53037 1.3857,-3.13458 2.11056,-4.68834 0.52653,-1.16781 1.27411,-2.19713 2.07752,-3.18492 1.21149,-1.67443 2.54844,-3.2375 3.9667,-4.73918 2.5786,-2.65096 5.43552,-4.99954 8.32258,-7.30153 1.47176,-1.15296 3.00271,-2.22619 4.50387,-3.34029 0,0 5.83839,-2.31433 5.83839,-2.31433 l 0,0 c -1.54908,1.12124 -3.10921,2.22493 -4.64065,3.36974 -2.87738,2.26383 -5.72393,4.57638 -8.29113,7.19467 -1.38862,1.45107 -2.71748,2.95414 -3.83712,4.62665 -0.78017,0.98867 -1.64017,1.92213 -2.18429,3.07541 -0.75805,1.51837 -1.38736,3.09024 -2.02799,4.66063 0,0 -5.83844,2.64149 -5.83844,2.64149 z" id="path3420" style="fill:#ff0000"></path>
      <path inkscape:connector-curvature="0" d="m 383.34807,561.17327 c 2.25592,-4.5031 4.70105,-8.9033 7.242,-13.25072 3.29482,-5.52991 7.22286,-10.63655 11.18931,-15.69275 1.39796,-1.78197 2.82788,-3.53831 4.2626,-5.29066 0,0 5.64511,-2.39799 5.64511,-2.39799 l 0,0 c -1.49738,1.76135 -2.98645,3.5299 -4.42264,5.34193 -4.01604,5.02658 -7.97571,10.12008 -11.29287,15.64561 -2.456,4.24132 -4.85709,8.52299 -6.84187,13.00994 0,0 -5.78164,2.63464 -5.78164,2.63464 z" id="path3422" style="fill:#ff0000"></path>
      <path inkscape:connector-curvature="0" d="m 367.54401,555.35964 c 5.02958,-5.16153 9.91645,-10.46115 14.83047,-15.73253 6.08608,-6.39667 11.6091,-13.28395 17.2195,-20.09103 1.63094,-1.99103 3.25487,-3.98729 4.90652,-5.96116 0,0 5.62923,-2.38155 5.62923,-2.38155 l 0,0 c -1.7578,1.99288 -3.47553,4.01918 -5.1731,6.06378 -5.71307,6.80207 -11.28583,13.72821 -17.38554,20.19498 -4.75182,5.13412 -9.51541,10.25765 -14.16921,15.4811 0,0 -5.85787,2.42641 -5.85787,2.42641 z" id="path3424" style="fill:#ff0000"></path>
    </g>
  </g>
</svg>
